<?xml version="1.0" encoding="utf-8"?>
<!-- Generator: Adobe Illustrator 23.0.1, SVG Export Plug-In . SVG Version: 6.00 Build 0)  -->
<svg version="1.1" id="Layer_1" xmlns="http://www.w3.org/2000/svg" xmlns:xlink="http://www.w3.org/1999/xlink" x="0px" y="0px"
	 viewBox="0 0 64 64" style="enable-background:new 0 0 64 64;" xml:space="preserve">
<style type="text/css">
	.st0{fill:#BE1E2D;stroke:#231F20;stroke-width:8.215763e-02;stroke-miterlimit:10;}
	.st1{fill:#FFFFFF;}
	.st2{fill:#BE1E2D;}
</style>
<g>
	<g>
		<path class="st0" d="M32,2L29,5.4C29,5.4,28,10,32,10S35,5.5,35,5.5L32,2z"/>
		<path class="st0" d="M29.3,9.7c0.8,1.1,3.6,2.2,5.4,0v7.5c0,0-2.4,1.7-5.4-0.3L29.3,9.7z"/>
		<path class="st0" d="M29.3,18.1c0,0,3.4,2,5.4,0L41,20l-5.9,2.6c0,0-3.2-2.6-5.8,0l-6-2.2L29.3,18.1z"/>
		<path class="st0" d="M29.3,23.9c0,0,2.9,2.9,5.4,0c0,0-2.6,3.8,0.3,2.8c0,0,3.7,3.2-1.4,5.2c0,0-2.1,3.7,1.1,3.7
			c0,0-0.2,9.6,8.3,8.4c0,0-12.1,2.8-11.9,12.1c0,0-3.3-12.3-11.6-12.4c0,0,9-2.5,9.1-6.1c-2.6-2.1-2.6-8.3,0.7-8.3
			c3.4-0.7,2-1.7,2-1.7S28.1,28.2,29.3,23.9z"/>
		<ellipse class="st1" cx="31.3" cy="44" rx="2" ry="3.6"/>
	</g>
	<g>
		<path class="st2" d="M15.6,57.6c0-0.3,0-0.5-0.1-0.7c-0.1-0.2-0.3-0.2-0.5-0.2h-0.2v-0.2h3.7c0.5,0,0.8,0.2,0.8,0.7v0.7h-0.2
			c0-0.7-0.4-1.1-1.2-1.1h-1.5v2.5h2.1v0.4h-2.1v2.9h-0.8V57.6z"/>
		<path class="st2" d="M20.3,57.6c0-0.3,0-0.5-0.1-0.7c-0.1-0.2-0.3-0.2-0.5-0.2h-0.2v-0.2h0.8c0.2,0,0.4,0,0.5,0.1
			c0.1,0.1,0.2,0.2,0.2,0.3c0,0.2,0.1,0.4,0.1,0.7v5h-0.8V57.6z"/>
		<path class="st2" d="M23,62.5c-0.2-0.1-0.4-0.2-0.5-0.4c-0.1-0.2-0.2-0.4-0.2-0.8c0-0.5,0.2-0.8,0.7-1c0.4-0.2,1-0.3,1.7-0.3h0.3
			c0-0.6-0.1-1-0.3-1.2c-0.2-0.2-0.4-0.3-0.7-0.3c-0.3,0-0.5,0.1-0.7,0.2c-0.2,0.1-0.3,0.3-0.4,0.6h-0.4c0-0.2,0-0.4,0-0.5
			c0-0.1,0.1-0.2,0.2-0.3c0.1-0.1,0.3-0.2,0.6-0.2c0.3-0.1,0.5-0.1,0.8-0.1c0.5,0,0.9,0.1,1.2,0.4c0.3,0.3,0.4,0.8,0.4,1.5v2.5h-0.5
			l-0.3-0.4h0c-0.1,0.1-0.3,0.3-0.5,0.4s-0.5,0.1-0.8,0.1C23.4,62.7,23.2,62.6,23,62.5z M24.5,62.1c0.1-0.1,0.3-0.2,0.4-0.4v-1.3
			h-0.3c-0.5,0-0.8,0.1-1.1,0.3c-0.3,0.2-0.4,0.4-0.4,0.7c0,0.3,0.1,0.5,0.3,0.7c0.2,0.2,0.4,0.2,0.6,0.2
			C24.2,62.2,24.4,62.2,24.5,62.1z"/>
		<path class="st2" d="M27.1,59.3c0-0.3,0-0.5-0.1-0.7c-0.1-0.2-0.3-0.2-0.5-0.2h-0.2v-0.2h0.8c0.2,0,0.4,0,0.5,0.1
			c0.1,0.1,0.2,0.2,0.3,0.3h0c0.1-0.1,0.3-0.2,0.5-0.3c0.2-0.1,0.4-0.1,0.7-0.1s0.5,0,0.7,0.1c0.2,0.1,0.3,0.3,0.4,0.5
			c0.2-0.2,0.4-0.4,0.6-0.5c0.3-0.1,0.5-0.2,0.8-0.2c0.4,0,0.7,0.1,0.9,0.4c0.2,0.2,0.4,0.7,0.4,1.3v2.8h-0.8v-2.8
			c0-0.4-0.1-0.8-0.2-1c-0.1-0.2-0.3-0.3-0.6-0.3c-0.2,0-0.4,0.1-0.5,0.2c-0.2,0.1-0.3,0.3-0.4,0.4c0,0.1,0,0.3,0,0.6v2.8h-0.8v-2.8
			c0-0.4-0.1-0.8-0.2-1c-0.1-0.2-0.3-0.3-0.6-0.3c-0.3,0-0.6,0.2-0.9,0.5v3.5h-0.8V59.3z"/>
		<path class="st2" d="M34.4,59.3c0-0.3,0-0.5-0.1-0.7c-0.1-0.2-0.3-0.2-0.5-0.2h-0.2v-0.2h0.8c0.2,0,0.4,0,0.5,0.1
			c0.1,0.1,0.2,0.2,0.2,0.3c0,0.2,0.1,0.4,0.1,0.7v3.2h-0.8V59.3z M34.4,57.5c-0.1-0.1-0.2-0.3-0.2-0.4c0-0.1,0-0.2,0.1-0.3
			c0.1-0.1,0.2-0.1,0.3-0.1c0.1,0,0.3,0.1,0.4,0.2c0.1,0.1,0.2,0.3,0.2,0.4c0,0.1,0,0.2-0.1,0.3c-0.1,0.1-0.2,0.1-0.3,0.1
			C34.6,57.6,34.5,57.6,34.4,57.5z"/>
		<path class="st2" d="M36.6,62.3c-0.1-0.1-0.2-0.2-0.2-0.4c0-0.1,0-0.3,0-0.6h0.2c0.1,0.3,0.2,0.5,0.4,0.7c0.2,0.2,0.5,0.3,0.9,0.3
			c0.3,0,0.6-0.1,0.8-0.2s0.3-0.3,0.3-0.5c0-0.2-0.1-0.3-0.2-0.5c-0.1-0.1-0.3-0.3-0.6-0.4l-0.6-0.2c-0.4-0.1-0.6-0.3-0.8-0.5
			c-0.2-0.2-0.3-0.4-0.3-0.7c0-0.4,0.1-0.7,0.4-0.9c0.3-0.2,0.7-0.3,1.1-0.3c0.7,0,1.1,0.1,1.4,0.4c0.1,0.1,0.2,0.2,0.2,0.4
			c0,0.1,0,0.3,0,0.6h-0.2c0-0.3-0.2-0.5-0.4-0.7c-0.2-0.2-0.5-0.3-0.9-0.3c-0.3,0-0.5,0.1-0.7,0.2c-0.2,0.1-0.2,0.3-0.2,0.5
			c0,0.3,0.2,0.6,0.7,0.8l0.6,0.2c0.4,0.2,0.7,0.4,0.9,0.6c0.2,0.2,0.3,0.4,0.3,0.7c0,0.4-0.2,0.7-0.5,0.9c-0.3,0.2-0.7,0.3-1.2,0.3
			C37.3,62.7,36.8,62.5,36.6,62.3z"/>
		<path class="st2" d="M41.4,62.4c-0.3-0.2-0.5-0.5-0.7-0.8c-0.2-0.3-0.2-0.7-0.2-1.2c0-0.4,0.1-0.8,0.2-1.2
			c0.2-0.3,0.4-0.6,0.7-0.8c0.3-0.2,0.7-0.3,1.1-0.3c0.4,0,0.8,0.1,1.1,0.3c0.3,0.2,0.5,0.5,0.7,0.8c0.2,0.3,0.2,0.7,0.2,1.2
			c0,0.4-0.1,0.8-0.2,1.2c-0.2,0.3-0.4,0.6-0.7,0.8c-0.3,0.2-0.7,0.3-1.1,0.3C42.1,62.7,41.7,62.6,41.4,62.4z M43.1,62
			c0.2-0.2,0.3-0.4,0.4-0.7c0.1-0.3,0.1-0.6,0.1-1s0-0.7-0.1-1c-0.1-0.3-0.2-0.5-0.4-0.7c-0.2-0.2-0.4-0.3-0.6-0.3
			c-0.2,0-0.4,0.1-0.6,0.3c-0.2,0.2-0.3,0.4-0.4,0.7c-0.1,0.3-0.1,0.6-0.1,1s0,0.7,0.1,1s0.2,0.5,0.4,0.7c0.2,0.2,0.4,0.3,0.6,0.3
			C42.7,62.3,42.9,62.2,43.1,62z"/>
		<path class="st2" d="M46.1,62.3c-0.3-0.2-0.4-0.7-0.4-1.3v-1.7c0-0.3,0-0.5-0.1-0.7c-0.1-0.2-0.3-0.2-0.5-0.2h-0.1v-0.2h0.7
			c0.2,0,0.4,0,0.5,0.1c0.1,0.1,0.2,0.2,0.2,0.3c0,0.2,0.1,0.4,0.1,0.7V61c0,0.4,0.1,0.8,0.3,1c0.2,0.2,0.4,0.3,0.7,0.3
			c0.3,0,0.6-0.2,0.9-0.5v-3.5h0.8v4.4h-0.5l-0.3-0.4h0c-0.1,0.1-0.3,0.2-0.5,0.3s-0.4,0.1-0.7,0.1C46.7,62.7,46.4,62.5,46.1,62.3z"
			/>
	</g>
</g>
</svg>
