<?xml version="1.0" encoding="utf-8"?>
<!-- Generator: Adobe Illustrator 23.0.1, SVG Export Plug-In . SVG Version: 6.00 Build 0)  -->
<svg version="1.1" id="Layer_1" xmlns="http://www.w3.org/2000/svg" xmlns:xlink="http://www.w3.org/1999/xlink" x="0px" y="0px"
	 viewBox="0 0 256 256" style="enable-background:new 0 0 256 256;" xml:space="preserve">
<style type="text/css">
	.st0{fill:#BE1E2D;stroke:#231F20;stroke-width:0.3186;stroke-miterlimit:10;}
	.st1{fill:#FFFFFF;}
	.st2{fill:#BE1E2D;}
</style>
<g>
	<g>
		<path class="st0" d="M133.1,8.1l-11.9,13.1c0,0-3.6,17.9,11.9,17.9s11.4-17.4,11.4-17.4L133.1,8.1z"/>
		<path class="st0" d="M122.6,37.8c3,4.3,13.8,8.5,21.1,0v29.1c0,0-9.5,6.5-20.8-1.2L122.6,37.8z"/>
		<path class="st0" d="M122.6,70.6c0,0,13.3,7.8,21.1,0l24,7.3L145,87.8c0,0-12.3-10.2-22.4,0l-23.4-8.6L122.6,70.6z"/>
		<path class="st0" d="M122.6,92.9c0,0,11.3,11.1,21.1,0c0,0-10.1,14.8,1.3,10.9c0,0,14.5,12.6-5.6,20.1c0,0-8.1,14.3,4.3,14.3
			c0,0-0.7,37.3,32.3,32.7c0,0-47,10.9-46.3,47c0,0-12.8-47.7-45.1-48c0,0,34.9-9.7,35.1-23.5c-9.9-8.2-10.1-32.2,2.8-32.2
			c13.1-2.9,7.7-6.8,7.7-6.8S117.9,109.6,122.6,92.9z"/>
		<ellipse class="st1" cx="130.3" cy="170.8" rx="7.6" ry="13.8"/>
	</g>
	<g>
		<path class="st2" d="M69.3,223.5c0-1.2-0.2-2.1-0.5-2.7c-0.3-0.6-1-0.9-2-0.9h-0.7v-0.7h14.4c2,0,3.1,1,3.1,2.9v2.7h-0.7
			c0-2.8-1.5-4.1-4.5-4.1h-5.7v9.5h8.1v1.4h-8.1V243h-3.2v-19.5H69.3z"/>
		<path class="st2" d="M87.7,223.5c0-1.2-0.2-2.1-0.5-2.7c-0.3-0.6-1-0.9-2-0.9h-0.7v-0.7h3.2c0.9,0,1.6,0.1,2,0.3s0.8,0.6,1,1.2
			c0.2,0.6,0.3,1.5,0.3,2.7V243h-3.2v-19.5H87.7z"/>
		<path class="st2" d="M98,242.8c-0.8-0.3-1.5-0.9-2-1.6c-0.6-0.7-0.8-1.7-0.8-3c0-1.8,0.8-3.1,2.5-3.9c1.7-0.8,3.9-1.2,6.6-1.2h1.1
			c0-2.4-0.3-4-1-4.8c-0.6-0.9-1.6-1.3-2.8-1.3c-1.1,0-1.9,0.2-2.6,0.7c-0.6,0.5-1.1,1.2-1.4,2.4H96c0-0.8,0-1.5,0.1-1.9
			c0.1-0.5,0.3-0.9,0.8-1.3c0.4-0.4,1.1-0.8,2.1-1s2.1-0.3,3.3-0.3c1.9,0,3.5,0.5,4.6,1.6s1.7,3,1.7,6v9.7h-1.8l-1.3-1.6h-0.2
			c-0.4,0.6-1.1,1-1.9,1.4s-1.9,0.6-3.1,0.6C99.6,243.3,98.8,243.2,98,242.8z M103.9,241.1c0.5-0.4,1-0.9,1.4-1.6v-4.9h-1.1
			c-1.8,0-3.2,0.3-4.2,1s-1.5,1.5-1.5,2.6s0.3,2,1,2.5c0.7,0.6,1.5,0.9,2.4,0.9C102.7,241.7,103.4,241.5,103.9,241.1z"/>
		<path class="st2" d="M114.2,230.4c0-1.2-0.2-2.1-0.5-2.7c-0.3-0.6-1-0.9-2-0.9H111v-0.7h3.2c0.9,0,1.6,0.1,2,0.4s0.8,0.6,1,1.1
			h0.2c0.5-0.5,1.2-0.9,2-1.3c0.8-0.3,1.7-0.5,2.7-0.5s1.9,0.2,2.6,0.6c0.7,0.4,1.3,1,1.7,2c0.6-0.8,1.4-1.4,2.4-1.9
			c1-0.4,2-0.7,3-0.7c1.5,0,2.8,0.5,3.7,1.4c0.9,1,1.4,2.6,1.4,5V243h-3.2v-10.8c0-1.7-0.2-3-0.7-3.7c-0.5-0.8-1.2-1.1-2.2-1.1
			c-0.7,0-1.4,0.2-2.1,0.7c-0.7,0.5-1.3,1-1.7,1.6c0.1,0.4,0.2,1.2,0.2,2.5V243H124v-10.8c0-1.7-0.2-3-0.7-3.7
			c-0.5-0.8-1.2-1.1-2.2-1.1c-1.3,0-2.5,0.6-3.6,1.9V243h-3.2L114.2,230.4L114.2,230.4z"/>
		<path class="st2" d="M142.4,230.4c0-1.2-0.2-2.1-0.5-2.7c-0.3-0.6-1-0.9-2-0.9h-0.7v-0.7h3.2c0.9,0,1.6,0.1,2,0.3s0.8,0.6,1,1.2
			c0.2,0.6,0.3,1.5,0.3,2.7V243h-3.2v-12.6H142.4z M142.4,223.2c-0.4-0.5-0.6-1-0.6-1.6c0-0.5,0.1-0.9,0.4-1.2s0.7-0.4,1.2-0.4
			c0.6,0,1,0.2,1.4,0.7s0.6,1,0.6,1.6c0,0.5-0.2,0.9-0.5,1.2s-0.7,0.4-1.2,0.4C143.2,223.9,142.8,223.7,142.4,223.2z"/>
		<path class="st2" d="M150.8,241.9c-0.4-0.4-0.7-0.9-0.8-1.4s-0.1-1.3-0.1-2.4h0.7c0.2,1.2,0.7,2.1,1.6,2.8c0.8,0.7,2,1,3.5,1
			c1.3,0,2.3-0.2,3-0.7s1-1.1,1-1.8s-0.3-1.3-0.8-1.8s-1.3-1-2.5-1.4l-2.2-0.9c-1.4-0.6-2.5-1.2-3.2-2s-1.1-1.7-1.1-2.8
			c0-1.5,0.6-2.6,1.7-3.4c1.1-0.8,2.5-1.2,4.3-1.2c2.6,0,4.4,0.5,5.4,1.4c0.4,0.4,0.7,0.9,0.8,1.4s0.1,1.3,0.1,2.4h-0.7
			c-0.2-1.2-0.7-2.1-1.5-2.8s-1.9-1-3.3-1c-1.1,0-2,0.2-2.6,0.7s-1,1.1-1,1.8c0,1.2,1,2.3,2.9,3.1l2.2,0.9c1.6,0.7,2.8,1.4,3.6,2.1
			s1.1,1.7,1.1,2.9c0,1.5-0.6,2.6-1.8,3.4c-1.2,0.8-2.7,1.2-4.5,1.2C153.6,243.3,151.8,242.9,150.8,241.9z"/>
		<path class="st2" d="M169.5,242.2c-1.2-0.8-2.1-1.8-2.7-3.2c-0.6-1.3-0.9-2.8-0.9-4.5c0-1.6,0.3-3.1,0.9-4.5s1.5-2.4,2.7-3.2
			s2.6-1.2,4.2-1.2c1.6,0,3,0.4,4.2,1.2s2.1,1.8,2.7,3.2c0.6,1.3,0.9,2.8,0.9,4.5c0,1.6-0.3,3.1-0.9,4.5c-0.6,1.3-1.5,2.4-2.7,3.2
			s-2.6,1.2-4.2,1.2C172.1,243.3,170.7,242.9,169.5,242.2z M176.1,240.9c0.7-0.6,1.2-1.5,1.6-2.7c0.4-1.1,0.6-2.4,0.6-3.7
			s-0.2-2.6-0.6-3.7c-0.4-1.1-0.9-2-1.6-2.7c-0.7-0.6-1.5-1-2.4-1s-1.7,0.3-2.4,1c-0.7,0.6-1.2,1.5-1.6,2.7
			c-0.4,1.1-0.6,2.4-0.6,3.7s0.2,2.6,0.6,3.7s0.9,2,1.6,2.7c0.7,0.6,1.5,1,2.4,1S175.4,241.6,176.1,240.9z"/>
		<path class="st2" d="M187.6,241.9c-1.1-1-1.7-2.6-1.7-5v-6.5c0-1.2-0.2-2.1-0.5-2.7c-0.3-0.6-1-0.9-2-0.9H183v-0.7h2.9
			c0.9,0,1.6,0.1,2,0.3s0.8,0.6,1,1.2c0.2,0.6,0.3,1.5,0.3,2.7v6.5c0,1.7,0.4,2.9,1.1,3.7s1.7,1.2,2.8,1.2c1.3,0,2.5-0.6,3.6-1.9
			V226h3.2v17h-1.8l-1.3-1.4h-0.2c-0.5,0.5-1.2,0.9-2,1.3s-1.7,0.5-2.7,0.5C190.2,243.3,188.8,242.9,187.6,241.9z"/>
	</g>
</g>
</svg>
