<?xml version="1.0" encoding="utf-8"?>
<!-- Generator: Adobe Illustrator 23.0.1, SVG Export Plug-In . SVG Version: 6.00 Build 0)  -->
<svg version="1.1" id="Layer_1" xmlns="http://www.w3.org/2000/svg" xmlns:xlink="http://www.w3.org/1999/xlink" x="0px" y="0px"
	 viewBox="0 0 16 16" style="enable-background:new 0 0 16 16;" xml:space="preserve">
<style type="text/css">
	.st0{fill:#BE1E2D;stroke:#231F20;stroke-width:2.042936e-02;stroke-miterlimit:10;}
	.st1{fill:#FFFFFF;}
	.st2{fill:#BE1E2D;}
</style>
<g>
	<g>
		<path class="st0" d="M8.1,0.6L7.3,1.4c0,0-0.2,1.1,0.8,1.1s0.7-1.1,0.7-1.1L8.1,0.6z"/>
		<path class="st0" d="M7.4,2.5c0.2,0.3,0.9,0.5,1.4,0v1.9c0,0-0.6,0.4-1.3-0.1L7.4,2.5z"/>
		<path class="st0" d="M7.4,4.6c0,0,0.9,0.5,1.4,0L10.3,5L8.9,5.7c0,0-0.8-0.7-1.4,0L5.9,5.1L7.4,4.6z"/>
		<path class="st0" d="M7.4,6c0,0,0.7,0.7,1.4,0c0,0-0.6,0.9,0.1,0.7c0,0,0.9,0.8-0.4,1.3c0,0-0.5,0.9,0.3,0.9c0,0,0,2.4,2.1,2.1
			c0,0-3,0.7-3,3c0,0-0.8-3.1-2.9-3.1c0,0,2.2-0.6,2.3-1.5c-0.7-0.5-0.7-2,0.1-2C8.2,7.2,7.9,7,7.9,7S7.1,7.1,7.4,6z"/>
		<ellipse class="st1" cx="7.9" cy="11" rx="0.5" ry="0.9"/>
	</g>
	<g>
		<path class="st2" d="M4,14.4c0-0.1,0-0.1,0-0.2l-0.1-0.1l0,0l0,0h0.9c0.1,0,0.2,0.1,0.2,0.2v0.2l0,0c0-0.2-0.1-0.3-0.3-0.3H4.2
			v0.6h0.5v0.1H4.2v0.7H4V14.4z"/>
		<path class="st2" d="M5.2,14.4c0-0.1,0-0.1,0-0.2l-0.1-0.1l0,0l0,0h0.2c0.1,0,0.1,0,0.1,0s0,0,0.1,0.1c0,0,0,0.1,0,0.2v1.2H5.2
			V14.4z"/>
		<path class="st2" d="M5.8,15.6c-0.1,0-0.1-0.1-0.1-0.1s-0.1-0.1-0.1-0.2c0-0.1,0.1-0.2,0.2-0.2C5.9,15,6.1,15,6.2,15h0.1
			c0-0.2,0-0.3-0.1-0.3c0-0.1-0.1-0.1-0.2-0.1s-0.1,0-0.2,0c0,0-0.1,0.1-0.1,0.2h0c0-0.1,0-0.1,0-0.1v-0.1c0,0,0.1,0,0.1-0.1
			c0.1,0,0.1,0,0.2,0s0.2,0,0.3,0.1s0.1,0.2,0.1,0.4v0.6h0l-0.1-0.1l0,0l-0.1,0.1c-0.1,0-0.1,0-0.2,0C5.9,15.6,5.9,15.6,5.8,15.6z
			 M6.2,15.5l0.1-0.1v-0.3H6.2c-0.1,0-0.2,0-0.3,0.1c-0.1,0-0.1,0.1-0.1,0.2c0,0.1,0,0.1,0.1,0.2c0,0,0.1,0.1,0.2,0.1
			C6.1,15.5,6.2,15.5,6.2,15.5z"/>
		<path class="st2" d="M6.9,14.8c0-0.1,0-0.1,0-0.2l-0.1-0.1l0,0l0,0H7c0.1,0,0.1,0,0.1,0s0.1,0,0.1,0.1l0,0l0.1-0.1
			c0.1,0,0.1,0,0.2,0s0.1,0,0.2,0l0.1,0.1c0-0.1,0.1-0.1,0.2-0.1c0.1,0,0.1,0,0.2,0c0.1,0,0.2,0,0.2,0.1c0.1,0.1,0.1,0.2,0.1,0.3
			v0.7H8.1v-0.7c0-0.1,0-0.2,0-0.2L8,14.6H7.9l-0.1,0.1c0,0,0,0.1,0,0.2v0.7H7.5v-0.7c0-0.1,0-0.2,0-0.2l-0.1-0.1
			c-0.1,0-0.2,0-0.2,0.1v0.9H6.9V14.8z"/>
		<path class="st2" d="M8.7,14.8c0-0.1,0-0.1,0-0.2l-0.1-0.1l0,0l0,0h0.2c0.1,0,0.1,0,0.1,0s0,0,0.1,0.1c0,0,0,0.1,0,0.2v0.8H8.7
			V14.8z M8.7,14.4v-0.1v-0.1c0,0,0,0,0.1,0h0.1v0.1v0.1C8.8,14.4,8.8,14.4,8.7,14.4L8.7,14.4z"/>
		<path class="st2" d="M9.2,15.5L9.2,15.5c-0.1-0.1-0.1-0.2-0.1-0.2l0,0C9.2,15.4,9.3,15.4,9.2,15.5c0.1,0,0.2,0,0.3,0s0.1,0,0.2,0
			l0.1-0.1v-0.1c0,0-0.1-0.1-0.2-0.1l-0.1-0.1c-0.1,0-0.2-0.1-0.2-0.1s-0.1-0.1-0.1-0.2c0-0.1,0-0.2,0.1-0.2
			c0.1-0.1,0.2-0.1,0.3-0.1c0.2,0,0.3,0,0.3,0.1v0.1c0,0,0,0.1,0,0.2l0,0c0-0.1,0-0.1-0.1-0.2c-0.1,0-0.1-0.1-0.2-0.1
			c-0.1,0-0.1,0-0.2,0l-0.1,0.1c0,0.1,0.1,0.1,0.2,0.2L9.7,15c0.1,0,0.2,0.1,0.2,0.1s0.1,0.1,0.1,0.2c0,0.1,0,0.2-0.1,0.2
			c-0.1,0.1-0.2,0.1-0.3,0.1C9.4,15.6,9.3,15.6,9.2,15.5z"/>
		<path class="st2" d="M10.4,15.6c-0.1-0.1-0.1-0.1-0.2-0.2c0-0.1-0.1-0.2-0.1-0.3s0-0.2,0.1-0.3c0-0.1,0.1-0.2,0.2-0.2
			c0.1,0,0.2-0.1,0.3-0.1s0.2,0,0.3,0.1s0.1,0.1,0.2,0.2c0,0.1,0.1,0.2,0.1,0.3s0,0.2-0.1,0.3c0,0.1-0.1,0.2-0.2,0.2
			c-0.1,0-0.2,0.1-0.3,0.1C10.6,15.6,10.5,15.6,10.4,15.6z M10.8,15.5c0,0,0.1-0.1,0.1-0.2c0-0.1,0-0.2,0-0.2v-0.2
			c0-0.1-0.1-0.1-0.1-0.2c0,0-0.1-0.1-0.2-0.1c-0.1,0-0.1,0-0.2,0.1c0,0-0.1,0.1-0.1,0.2c0,0.1,0,0.2,0,0.2v0.2
			c0,0.1,0.1,0.1,0.1,0.2c0,0,0.1,0.1,0.2,0.1C10.8,15.5,10.8,15.5,10.8,15.5z"/>
		<path class="st2" d="M11.6,15.5c-0.1-0.1-0.1-0.2-0.1-0.3v-0.4c0-0.1,0-0.1,0-0.2l-0.1-0.1l0,0l0,0h0.2c0.1,0,0.1,0,0.1,0
			s0,0,0.1,0.1c0,0,0,0.1,0,0.2v0.4c0,0.1,0,0.2,0.1,0.2c0,0.1,0.1,0.1,0.2,0.1c0.1,0,0.2,0,0.2-0.1v-0.9h0.2v1.1h-0.1l-0.1-0.1l0,0
			l-0.1,0.1c-0.1,0-0.1,0-0.2,0C11.8,15.6,11.7,15.6,11.6,15.5z"/>
	</g>
</g>
</svg>
