<?xml version="1.0" encoding="utf-8"?>
<!-- Generator: Adobe Illustrator 23.0.1, SVG Export Plug-In . SVG Version: 6.00 Build 0)  -->
<svg version="1.1" id="Layer_1" xmlns="http://www.w3.org/2000/svg" xmlns:xlink="http://www.w3.org/1999/xlink" x="0px" y="0px"
	 viewBox="0 0 32 32" style="enable-background:new 0 0 32 32;" xml:space="preserve">
<style type="text/css">
	.st0{fill:#BE1E2D;stroke:#231F20;stroke-width:4.079599e-02;stroke-miterlimit:10;}
	.st1{fill:#FFFFFF;}
	.st2{fill:#BE1E2D;}
</style>
<g>
	<g>
		<path class="st0" d="M16.4,0.9l-1.5,1.7c0,0-0.5,2.3,1.5,2.3s1.5-2.2,1.5-2.2L16.4,0.9z"/>
		<path class="st0" d="M15.1,4.7c0.4,0.5,1.8,1.1,2.7,0v3.7c0,0-1.2,0.8-2.7-0.2L15.1,4.7z"/>
		<path class="st0" d="M15.1,8.9c0,0,1.7,1,2.7,0l3.1,0.9l-2.9,1.3c0,0-1.6-1.3-2.9,0l-3-1.1L15.1,8.9z"/>
		<path class="st0" d="M15.1,11.8c0,0,1.5,1.4,2.7,0c0,0-1.3,1.9,0.2,1.4c0,0,1.9,1.6-0.7,2.6c0,0-1,1.8,0.6,1.8
			c0,0-0.1,4.8,4.1,4.2c0,0-6,1.4-5.9,6c0,0-1.6-6.1-5.8-6.1c0,0,4.5-1.2,4.5-3c-1.3-1.1-1.3-4.1,0.4-4.1c1.7-0.4,1-0.9,1-0.9
			S14.5,13.9,15.1,11.8z"/>
		<ellipse class="st1" cx="16" cy="21.8" rx="1" ry="1.8"/>
	</g>
	<g>
		<path class="st2" d="M8.2,28.5c0-0.2,0-0.3-0.1-0.3c0-0.1-0.1-0.1-0.3-0.1H7.8V28h1.8c0.3,0,0.4,0.1,0.4,0.4v0.3H10
			c0-0.4-0.2-0.5-0.6-0.5H8.7v1.2h1v0.2h-1V31H8.2V28.5z"/>
		<path class="st2" d="M10.6,28.5c0-0.2,0-0.3-0.1-0.3c0-0.1-0.1-0.1-0.3-0.1h-0.1V28h0.4c0.1,0,0.2,0,0.3,0c0.1,0,0.1,0.1,0.1,0.2
			c0,0.1,0,0.2,0,0.4V31h-0.4V28.5z"/>
		<path class="st2" d="M11.9,31c-0.1,0-0.2-0.1-0.3-0.2c-0.1-0.1-0.1-0.2-0.1-0.4c0-0.2,0.1-0.4,0.3-0.5c0.2-0.1,0.5-0.1,0.9-0.1
			h0.1c0-0.3,0-0.5-0.1-0.6C12.6,29,12.5,29,12.4,29c-0.1,0-0.2,0-0.3,0.1c-0.1,0.1-0.1,0.2-0.2,0.3h-0.2c0-0.1,0-0.2,0-0.2
			c0-0.1,0-0.1,0.1-0.2c0.1-0.1,0.1-0.1,0.3-0.1c0.1,0,0.3,0,0.4,0c0.2,0,0.4,0.1,0.6,0.2c0.1,0.1,0.2,0.4,0.2,0.8V31H13l-0.2-0.2h0
			c-0.1,0.1-0.1,0.1-0.2,0.2c-0.1,0-0.2,0.1-0.4,0.1C12.1,31.1,12,31,11.9,31z M12.7,30.8c0.1,0,0.1-0.1,0.2-0.2V30h-0.1
			c-0.2,0-0.4,0-0.5,0.1C12,30.2,12,30.3,12,30.4c0,0.1,0,0.2,0.1,0.3c0.1,0.1,0.2,0.1,0.3,0.1C12.5,30.9,12.6,30.8,12.7,30.8z"/>
		<path class="st2" d="M14,29.4c0-0.2,0-0.3-0.1-0.3c0-0.1-0.1-0.1-0.3-0.1h-0.1v-0.1H14c0.1,0,0.2,0,0.3,0s0.1,0.1,0.1,0.1h0
			c0.1-0.1,0.1-0.1,0.3-0.2c0.1,0,0.2-0.1,0.3-0.1s0.2,0,0.3,0.1c0.1,0,0.2,0.1,0.2,0.3c0.1-0.1,0.2-0.2,0.3-0.2
			c0.1-0.1,0.3-0.1,0.4-0.1c0.2,0,0.4,0.1,0.5,0.2c0.1,0.1,0.2,0.3,0.2,0.6V31h-0.4v-1.4c0-0.2,0-0.4-0.1-0.5
			c-0.1-0.1-0.2-0.1-0.3-0.1c-0.1,0-0.2,0-0.3,0.1c-0.1,0.1-0.2,0.1-0.2,0.2c0,0,0,0.2,0,0.3V31h-0.4v-1.4c0-0.2,0-0.4-0.1-0.5
			C15.1,29.1,15,29,14.9,29c-0.2,0-0.3,0.1-0.5,0.2V31H14V29.4z"/>
		<path class="st2" d="M17.6,29.4c0-0.2,0-0.3-0.1-0.3c0-0.1-0.1-0.1-0.3-0.1h-0.1v-0.1h0.4c0.1,0,0.2,0,0.3,0
			c0.1,0,0.1,0.1,0.1,0.2c0,0.1,0,0.2,0,0.4V31h-0.4V29.4z M17.6,28.5c-0.1-0.1-0.1-0.1-0.1-0.2c0-0.1,0-0.1,0.1-0.2
			c0,0,0.1-0.1,0.2-0.1c0.1,0,0.1,0,0.2,0.1c0.1,0.1,0.1,0.1,0.1,0.2c0,0.1,0,0.1-0.1,0.2c0,0-0.1,0.1-0.2,0.1
			C17.7,28.6,17.6,28.5,17.6,28.5z"/>
		<path class="st2" d="M18.7,30.9c-0.1-0.1-0.1-0.1-0.1-0.2c0-0.1,0-0.2,0-0.3h0.1c0,0.2,0.1,0.3,0.2,0.4c0.1,0.1,0.3,0.1,0.4,0.1
			c0.2,0,0.3,0,0.4-0.1c0.1-0.1,0.1-0.1,0.1-0.2c0-0.1,0-0.2-0.1-0.2c-0.1-0.1-0.2-0.1-0.3-0.2L19.1,30c-0.2-0.1-0.3-0.2-0.4-0.3
			c-0.1-0.1-0.1-0.2-0.1-0.4c0-0.2,0.1-0.3,0.2-0.4c0.1-0.1,0.3-0.2,0.5-0.2c0.3,0,0.6,0.1,0.7,0.2c0.1,0.1,0.1,0.1,0.1,0.2
			c0,0.1,0,0.2,0,0.3H20c0-0.2-0.1-0.3-0.2-0.4C19.7,29,19.6,29,19.4,29c-0.1,0-0.3,0-0.3,0.1c-0.1,0.1-0.1,0.1-0.1,0.2
			c0,0.2,0.1,0.3,0.4,0.4l0.3,0.1c0.2,0.1,0.4,0.2,0.5,0.3s0.1,0.2,0.1,0.4c0,0.2-0.1,0.3-0.2,0.4c-0.2,0.1-0.3,0.2-0.6,0.2
			C19,31.1,18.8,31,18.7,30.9z"/>
		<path class="st2" d="M21.1,30.9c-0.2-0.1-0.3-0.2-0.4-0.4c-0.1-0.2-0.1-0.4-0.1-0.6c0-0.2,0-0.4,0.1-0.6c0.1-0.2,0.2-0.3,0.4-0.4
			c0.2-0.1,0.3-0.1,0.5-0.1c0.2,0,0.4,0.1,0.5,0.1c0.2,0.1,0.3,0.2,0.4,0.4c0.1,0.2,0.1,0.4,0.1,0.6c0,0.2,0,0.4-0.1,0.6
			c-0.1,0.2-0.2,0.3-0.4,0.4c-0.2,0.1-0.3,0.1-0.5,0.1C21.4,31.1,21.2,31,21.1,30.9z M21.9,30.8c0.1-0.1,0.2-0.2,0.2-0.3
			c0-0.1,0.1-0.3,0.1-0.5c0-0.2,0-0.3-0.1-0.5c0-0.1-0.1-0.3-0.2-0.3C21.8,29,21.7,29,21.6,29c-0.1,0-0.2,0-0.3,0.1
			c-0.1,0.1-0.2,0.2-0.2,0.3c0,0.1-0.1,0.3-0.1,0.5c0,0.2,0,0.3,0.1,0.5s0.1,0.3,0.2,0.3c0.1,0.1,0.2,0.1,0.3,0.1
			C21.7,30.9,21.8,30.8,21.9,30.8z"/>
		<path class="st2" d="M23.4,30.9c-0.1-0.1-0.2-0.3-0.2-0.6v-0.8c0-0.2,0-0.3-0.1-0.3c0-0.1-0.1-0.1-0.3-0.1h0v-0.1h0.4
			c0.1,0,0.2,0,0.3,0c0.1,0,0.1,0.1,0.1,0.2c0,0.1,0,0.2,0,0.4v0.8c0,0.2,0,0.4,0.1,0.5c0.1,0.1,0.2,0.1,0.4,0.1
			c0.2,0,0.3-0.1,0.5-0.2v-1.8H25V31h-0.2l-0.2-0.2h0c-0.1,0.1-0.1,0.1-0.3,0.2c-0.1,0-0.2,0.1-0.3,0.1C23.7,31.1,23.5,31,23.4,30.9
			z"/>
	</g>
</g>
</svg>
