<svg xmlns="http://www.w3.org/2000/svg"><symbol id="facebook" viewBox="0 0 256 256"><path fill="#be1e2d" d="M199.3 37.2v33c-41.6-2.2-36 6-36.7 40.2h36.7l-5.2 37.1h-31.5V240H125v-92.5l-31.5-.3v-36.1l32.3-.4c-12.8-85.2 47.3-73.2 73.5-73.5zm40 192.6V28.5a12 12 0 0 0-12-12H26.1a12 12 0 0 0-12 12v201.3a12 12 0 0 0 12 12h201.2a12 12 0 0 0 12-12z"/></symbol><symbol id="twitter" viewBox="0 0 256 256"><path fill="#be1e2d" d="M228.6 240.6H27.4a12 12 0 0 1-12-12V27.4a12 12 0 0 1 12-12h201.2a12 12 0 0 1 12 12v201.2a12 12 0 0 1-12 12zM43.3 53.2c-14.1 31.3 13 53.5 13 53.5-8.2.9-17.8-4.8-17.8-4.8-.3 32.4 31.6 39.7 31.6 39.7-10.5 3.7-17.8.9-17.8.9 11.6 28.1 37.5 27.9 37.5 27.9-27.6 20.8-58.3 16.9-58.3 16.9 82.2 48.4 178.8-13.8 174.6-102 9.5-6.7 19.6-20.8 19.6-20.8-5.1 4.5-22.2 6.6-22.2 6.6C218.2 59.7 221 49 221 49c-4.8 5.1-26.2 9.6-26.2 9.6-18.3-22-74.3-16.6-68.1 36.9-44.8 4.8-83.4-42.3-83.4-42.3z"/></symbol></svg>