<svg xmlns="http://www.w3.org/2000/svg"><symbol id="back-to-top" viewBox="0 0 256 256"><path fill="#be1e2d" d="M0-.2h256.2v256.25H0z"/><path fill="#fff" d="M64.5 32.8h127.2v16.87H64.5zm66.9 23.8l-66.9 55.8h25.4l-.6 57h79.4v-53.3h23l-60.3-59.5zm-82 141.7h7c4.8 0 8.1 1.6 8.1 5.8a5.1 5.1 0 0 1-3.4 5.1 5.6 5.6 0 0 1 4.8 5.7c0 4.6-3.7 6.9-9 6.9h-7.5zm6.5 10c4 0 5.7-1.4 5.7-3.8s-1.9-3.8-5.6-3.8h-3.6v7.6zm.6 11.2c4.1 0 6.4-1.4 6.4-4.6s-2.3-4.3-6.4-4.3h-4.1v8.9zm12.7-2.1c0-3.8 3.3-5.7 10.7-6.6 0-2.2-.7-4.4-3.6-4.4a9.9 9.9 0 0 0-5.2 1.9l-1.1-2a12.2 12.2 0 0 1 6.8-2.3c4.3 0 6.1 2.8 6.1 7.2v10.7h-2.4l-.3-2.1h-.1a9 9 0 0 1-5.8 2.5c-2.9 0-5.1-1.8-5.1-4.9zm10.7.2v-4.8c-5.8.7-7.8 2.1-7.8 4.4s1.4 2.8 3.1 2.8 3-.9 4.7-2.4zm7.2-4.4c0-5.9 4-9.2 8.5-9.2a7.2 7.2 0 0 1 5.1 2l-1.5 2a5.2 5.2 0 0 0-3.5-1.6c-3.2 0-5.5 2.8-5.5 6.8s2.2 6.7 5.4 6.7a6.2 6.2 0 0 0 4.1-1.8l1.3 2a8.7 8.7 0 0 1-5.7 2.2c-4.6 0-8.2-3.3-8.2-9.1zm17.8-16.9h2.9v17.3h.1l7.4-9.2h3.3l-5.9 7 6.7 10.5h-3.2l-5.2-8.4-3.2 3.8v4.6h-2.9zm25.5 20.2v-9.7h-2.6v-2.2l2.7-.2.4-4.9h2.5v4.9h4.7v2.4h-4.7v9.7c0 2.2.6 3.4 2.7 3.4a5.8 5.8 0 0 0 1.9-.4l.6 2.2a11.3 11.3 0 0 1-3.2.6c-3.8 0-5-2.3-5-5.8zm9.8-3.3c0-5.9 3.9-9.2 8.1-9.2s8.1 3.3 8.1 9.2-3.8 9.1-8.1 9.1-8.1-3.3-8.1-9.1zm13.2 0c0-4-2-6.8-5.1-6.8s-5 2.8-5 6.8 2.1 6.7 5 6.7 5.1-2.7 5.1-6.7zm20-12.4h-7.1v-2.5h17.3v2.5h-7.1v21.1h-3.1zm10.5 12.4c0-5.9 3.8-9.2 8.1-9.2s8.1 3.3 8.1 9.2-3.8 9.1-8.1 9.1-8.1-3.3-8.1-9.1zm13.1 0c0-4-2-6.8-5-6.8s-5.1 2.8-5.1 6.8 2.1 6.7 5.1 6.7 5-2.7 5-6.7zm7.7-8.8h2.4l.3 2h.1a9.2 9.2 0 0 1 5.6-2.4c4.5 0 6.9 3.5 6.9 8.9s-3.6 9.4-7.6 9.4a7.7 7.7 0 0 1-4.8-2v9h-2.9zm12.2 8.5c0-3.8-1.3-6.4-4.6-6.4-1.5 0-2.9.8-4.7 2.3v9.2a6.9 6.9 0 0 0 4.3 1.9c2.9 0 5-2.7 5-7z"/></symbol><symbol id="open" viewBox="0 0 256 256"><path fill="#be1e2d" d="M48.1 54.5h159.6v34.63H48.1zm0 56.2h159.6v34.63H48.1zm.2 56.1h159.6v34.63H48.3z"/></symbol><symbol id="twitter" viewBox="0 0 256 256"><path fill="#be1e2d" d="M228.6 240.6H27.4a12 12 0 0 1-12-12V27.4a12 12 0 0 1 12-12h201.2a12 12 0 0 1 12 12v201.2a12 12 0 0 1-12 12zM43.3 53.2c-14.1 31.3 13 53.5 13 53.5-8.2.9-17.8-4.8-17.8-4.8-.3 32.4 31.6 39.7 31.6 39.7-10.5 3.7-17.8.9-17.8.9 11.6 28.1 37.5 27.9 37.5 27.9-27.6 20.8-58.3 16.9-58.3 16.9 82.2 48.4 178.8-13.8 174.6-102 9.5-6.7 19.6-20.8 19.6-20.8-5.1 4.5-22.2 6.6-22.2 6.6C218.2 59.7 221 49 221 49c-4.8 5.1-26.2 9.6-26.2 9.6-18.3-22-74.3-16.6-68.1 36.9-44.8 4.8-83.4-42.3-83.4-42.3z"/></symbol><symbol id="warning" viewBox="0 0 256 256"><path fill="#be1e2d" d="M130.1 29.3L22.6 215.4h214.9L130.1 29.3z"/><path fill="#fff200" d="M121 86.6h16.8v79.04H121z"/><circle cx="130.5" cy="186.2" r="12.2" fill="#fff200"/></symbol><symbol id="close" viewBox="0 0 256 256"><path fill="#be1e2d" d="M184.331 38.616l23.45 22.646L62.3 211.914l-23.451-22.646z"/><path fill="#be1e2d" d="M38.864 62.3L61.51 38.848 212.162 184.33l-22.646 23.45z"/></symbol><symbol id="facebook" viewBox="0 0 256 256"><path fill="#be1e2d" d="M199.3 37.2v33c-41.6-2.2-36 6-36.7 40.2h36.7l-5.2 37.1h-31.5V240H125v-92.5l-31.5-.3v-36.1l32.3-.4c-12.8-85.2 47.3-73.2 73.5-73.5zm40 192.6V28.5a12 12 0 0 0-12-12H26.1a12 12 0 0 0-12 12v201.3a12 12 0 0 0 12 12h201.2a12 12 0 0 0 12-12z"/></symbol></svg>