<svg id="Layer_1" data-name="Layer 1" xmlns="http://www.w3.org/2000/svg" width="16" height="16" viewBox="0 0 16 16"><title>logo-16</title><path d="M7.8.3l7.5,2.5L11.7,5.4,9.3,3.3,7.8,7.6l1.8.3L9.2,10l-2-.4L5.9,13.9c-.2-2.1-2.3-2.3-3-.6L4.5,9.2,3.1,8.7l.5-2,1.6.4Z" fill="#be1e2d"/><path d="M3.5,15.7l1.7-.8s1.1-1.6-.5-2.2S3,13.9,3,13.9Z" fill="#be1e2d"/><path d="M12,9.1l-.9-1.4s-.3.7-1.2.3l-.3,2s.9-.4,1.2.4Z" fill="#be1e2d"/><path d="M.7,7.4l.8,1.4a.8.8,0,0,1,1.2-.2l.5-2s-1,.3-1.2-.5Z" fill="#be1e2d"/></svg>