<svg id="Layer_1" data-name="Layer 1" xmlns="http://www.w3.org/2000/svg" width="32" height="32" viewBox="0 0 32 32"><title>flamisou-16</title><path d="M16.4.9,14.9,2.6s-.5,2.3,1.5,2.3,1.5-2.2,1.5-2.2Z" fill="#be1e2d" stroke="#231f20" stroke-miterlimit="10" stroke-width="0.04"/><path d="M15.1,4.7a1.7,1.7,0,0,0,2.7,0V8.5a2.5,2.5,0,0,1-2.7-.2Z" fill="#be1e2d" stroke="#231f20" stroke-miterlimit="10" stroke-width="0.04"/><path d="M15.1,8.9s1.7,1,2.7,0l3,1-2.9,1.2a2.1,2.1,0,0,0-2.8,0l-3-1.1Z" fill="#be1e2d" stroke="#231f20" stroke-miterlimit="10" stroke-width="0.04"/><path d="M15.1,11.8a1.8,1.8,0,0,0,2.7,0s-1.3,1.9.1,1.4,1.9,1.6-.7,2.6c0,0-1,1.8.6,1.8,0,0-.1,4.8,4.1,4.2,0,0-6,1.4-5.9,6,0,0-1.7-6.1-5.8-6.1,0,0,4.5-1.3,4.5-3s-1.3-4.2.4-4.2.9-.8.9-.8S14.5,13.9,15.1,11.8Z" fill="#be1e2d" stroke="#231f20" stroke-miterlimit="10" stroke-width="0.04"/><ellipse cx="16" cy="21.8" rx="1" ry="1.8" fill="#fff"/></svg>